HIERARCHY
ROOT ui
{
	 OFFSET 0 0 0
	 CHANNELS 3 XPosition YPosition Z Position
	 EndSite
	 {
	 OFFSET 0 -1 0
	 }
}
ROOT li
{
	 OFFSET 0 0 0
	 CHANNELS 3 XPosition YPosition Z Position
	 EndSite
	 {
	 OFFSET 0 -1 0
	 }
}
ROOT ul
{
	 OFFSET 0 0 0
	 CHANNELS 3 XPosition YPosition Z Position
	 EndSite
	 {
	 OFFSET 0 -1 0
	 }
}
ROOT ll
{
	 OFFSET 0 0 0
	 CHANNELS 3 XPosition YPosition Z Position
	 EndSite
	 {
	 OFFSET 0 -1 0
	 }
}
ROOT tt
{
	 OFFSET 0 0 0
	 CHANNELS 3 XPosition YPosition Z Position
	 EndSite
	 {
	 OFFSET 0 -1 0
	 }
}
ROOT tb
{
	 OFFSET 0 0 0
	 CHANNELS 3 XPosition YPosition Z Position
	 EndSite
	 {
	 OFFSET 0 -1 0
	 }
}
ROOT td
{
	 OFFSET 0 0 0
	 CHANNELS 3 XPosition YPosition Z Position
	 EndSite
	 {
	 OFFSET 0 -1 0
	 }
}
ROOT v
{
	 OFFSET 0 0 0
	 CHANNELS 3 XPosition YPosition Z Position
	 EndSite
	 {
	 OFFSET 0 -1 0
	 }
}
ROOT bn
{
	 OFFSET 0 0 0
	 CHANNELS 3 XPosition YPosition Z Position
	 EndSite
	 {
	 OFFSET 0 -1 0
	 }
}
MOTION
Frames: 16
Frame Time: 0.002
0.004100131988525391	-4.3896201252937314E-4	0		0.6081333618164062	-2.643137939453125	0		-1.0010320434570312	0.3852166748046875	0		-0.23170536804199218	-3.27017138671875	0		2.3205693359375	-1.8556361083984374	0		3.76532421875	-0.7879435424804687	0		4.8710400390625	-0.3640635986328125	0		5.9215576171875	0.35700628662109374	0		-0.17560675048828125	5.94406884765625	0		
-7.381899952888488E-4	0.004479189872741699	0		0.5954819946289063	-2.638053466796875	0		-1.010958740234375	0.386141845703125	0		-0.3332864990234375	-3.262770263671875	0		2.31872216796875	-1.8596002197265624	0		3.747140869140625	-0.808556640625	0		4.86705712890625	-0.36981704711914065	0		5.9101103515625	0.3423169250488281	0		-0.1920631103515625	5.9361455078125	0		
-0.00370066499710083	0.0013665740489959717	0		0.6176492309570313	-2.6465029296875	0		-1.0109057006835938	0.3859026184082031	0		-0.23612477111816407	-3.2754462890625	0		2.318953125	-1.859575439453125	0		3.775254638671875	-0.8108489379882813	0		4.86586279296875	-0.3895723876953125	0		5.90304248046875	0.34312322998046874	0		-0.3257727966308594	5.91601953125	0		
0.00130451500415802	-0.0038682570457458498	0		0.6018712768554687	-2.652362548828125	0		-1.0108568725585938	0.3856562805175781	0		-0.33257867431640625	-3.263143310546875	0		2.31919677734375	-1.8595328369140625	0		3.78126904296875	-0.8197706909179687	0		4.8600712890625	-0.38321780395507815	0		5.90678076171875	0.3609051818847656	0		-0.19288284301757813	5.9357958984375	0		
-0.0035384340286254883	0.0010495389699935913	0		0.604227294921875	-2.6504951171875	0		-1.0108124389648439	0.3854048767089844	0		-0.2333596649169922	-3.27483544921875	0		2.292421875	-1.8610650634765624	0		3.765913330078125	-0.787338623046875	0		4.86018701171875	-0.38292526245117187	0		5.90684130859375	0.361584228515625	0		-0.31152145385742186	5.92541552734375	0		
-4.1626301407814023E-4	0.0038472180366516113	0		0.5967435302734375	-2.638473388671875	0		-1.005712646484375	0.38907464599609376	0		-0.32772772216796875	-3.258581298828125	0		2.329614990234375	-1.8655576171875	0		3.764553466796875	-0.8211111450195312	0		4.86030126953125	-0.3826107482910156	0		5.91056396484375	0.3777467346191406	0		-0.19385040283203125	5.9354453125	0		
0.0015373300313949584	-0.004336343765258789	0		0.6537733764648438	-2.65942138671875	0		-1.0107365112304687	0.38489581298828124	0		-0.23153562927246094	-3.273207275390625	0		2.292938720703125	-1.8609259033203125	0		3.78481201171875	-0.8141924438476562	0		4.85632373046875	-0.38822164916992186	0		5.90695849609375	0.363062744140625	0		-0.34184439086914065	5.90448095703125	0		
-0.00331606388092041	5.856620073318482E-4	0		0.5933406372070312	-2.643600830078125	0		-1.010703857421875	0.38464266967773436	0		-0.23113735961914061	-3.273382568359375	0		2.33219140625	-1.8614300537109374	0		3.757997314453125	-0.8115640258789063	0		4.85643359375	-0.38788833618164065	0		5.90701318359375	0.36382666015625	0		-0.21003533935546875	5.92532470703125	0		
-0.0032480349540710447	4.360139966011047E-4	0		0.627458740234375	-2.658193359375	0		-1.0106737670898438	0.3843935546875	0		-0.3625391540527344	-3.258601806640625	0		2.3005947265625	-1.85087646484375	0		3.7581455078125	-0.8113423461914062	0		4.86240625	-0.39664602661132814	0		5.90893115234375	0.3195308532714844	0		-0.3769486083984375	5.899615234375	0		
0.0047871961593627926	-0.001827638030052185	0		0.5799313354492187	-2.647573974609375	0		-1.0006608276367188	0.38300381469726563	0		-0.34522198486328126	-3.263031982421875	0		2.31074853515625	-1.8569483642578124	0		3.787109130859375	-0.8235533447265625	0		4.86148046875	-0.39831100463867186	0		5.92416015625	0.352595703125	0		-0.341408203125	5.9019033203125	0		
0.0048509821891784665	-0.001968848943710327	0		0.6253499755859375	-2.6403212890625	0		-1.0055587158203125	0.3878428955078125	0		-0.3536679382324219	-3.2500751953125	0		2.3181279296875	-1.8469813232421874	0		3.77855615234375	-0.8022181396484375	0		4.86260986328125	-0.3960213928222656	0		5.91637451171875	0.35530532836914064	0		-0.343856689453125	5.903759765625	0		
-1.3891000300645828E-5	0.0029672749042510987	0		0.594587158203125	-2.6439521484375	0		-1.01058837890625	0.38369189453125	0		-0.22659776306152343	-3.2700859375	0		2.305395751953125	-1.84372705078125	0		3.7603701171875	-0.82376123046875	0		4.8686181640625	-0.4018204040527344	0		5.91275341796875	0.338794677734375	0		-0.3452950134277344	5.904607421875	0		
0.0019293570518493653	-0.005190797805786133	0		0.6187903442382813	-2.649379150390625	0		-1.0214296264648437	0.39263626098632814	0		-0.35808084106445315	-3.25632861328125	0		2.305607421875	-1.8436663818359376	0		3.771424072265625	-0.8287386474609375	0		4.8587119140625	-0.40140322875976564	0		5.9127998046875	0.33942083740234374	0		-0.22656315612792968	5.914728515625	0		
-0.0029421660900115967	-2.4152499437332154E-4	0		0.5931000366210938	-2.64607958984375	0		-1.0105352172851563	0.3832766723632812	0		-0.2259553527832031	-3.27037451171875	0		2.32663330078125	-1.855907958984375	0		3.76748779296875	-0.8325066528320313	0		4.8646689453125	-0.41022897338867187	0		5.91651220703125	0.3571917419433594	0		-0.2128299255371094	5.92438623046875	0		
1.5138399600982667E-4	0.0026023519039154053	0		0.6052468872070312	-2.65331884765625	0		-1.0054561767578125	0.38701678466796874	0		-0.38534414672851564	-3.247218994140625	0		2.283869873046875	-1.85223291015625	0		3.761987548828125	-0.8052555541992188	0		4.8578515625	-0.40287982177734377	0		5.91356640625	0.33537539672851563	0		-0.3465213623046875	5.9041611328125	0		
1.9637900590896608E-4	0.002500941038131714	0		0.609549072265625	-2.64843505859375	0		-1.0173088989257812	0.3960145568847656	0		-0.21928691101074219	-3.26370751953125	0		2.307114013671875	-1.8475015869140625	0		3.76770458984375	-0.8321754760742187	0		4.86482470703125	-0.409739013671875	0		5.9165869140625	0.3583117980957031	0		-0.2135912322998047	5.92414111328125	0		
